<svg width="28" height="28" viewBox="0 0 28 28" fill="none" xmlns="http://www.w3.org/2000/svg">
<path d="M7.0643 10.7603C6.99213 10.6983 6.90723 10.6499 6.81445 10.6177C6.72168 10.5855 6.62284 10.5703 6.52358 10.5729C6.42432 10.5754 6.32659 10.5957 6.23596 10.6326C6.14533 10.6695 6.06358 10.7222 5.99538 10.7878C5.92718 10.8534 5.87386 10.9306 5.83847 11.0149C5.80308 11.0992 5.78631 11.189 5.78912 11.2792C5.79193 11.3695 5.81426 11.4583 5.85484 11.5407C5.89542 11.623 5.95345 11.6973 6.02562 11.7593L12.8292 17.5993C12.9696 17.7199 13.1554 17.7871 13.3485 17.7871C13.5417 17.7871 13.7275 17.7199 13.8679 17.5993L20.6722 11.7593C20.746 11.6977 20.8055 11.6234 20.8474 11.5408C20.8893 11.4581 20.9127 11.3687 20.9163 11.2777C20.9198 11.1868 20.9035 11.0961 20.8681 11.0109C20.8328 10.9257 20.7792 10.8478 20.7104 10.7816C20.6417 10.7154 20.5591 10.6623 20.4676 10.6254C20.3761 10.5885 20.2774 10.5684 20.1773 10.5664C20.0771 10.5645 19.9776 10.5806 19.8844 10.6139C19.7912 10.6471 19.7061 10.6969 19.6343 10.7603L13.3485 16.1551L7.0643 10.7603Z" fill="#130E67"/>
</svg>
