<svg width="18" height="18" viewBox="0 0 18 18" fill="none" xmlns="http://www.w3.org/2000/svg">
<path d="M11.9028 5.51174C12.0445 5.81362 12.3273 6.025 12.657 6.07537L15.9459 6.57782C16.7505 6.70075 17.0791 7.68212 16.5106 8.26471L14.0689 10.7673C13.8472 10.9945 13.7466 11.3134 13.7977 11.6267L14.3655 15.1081C14.4998 15.9319 13.6253 16.5481 12.8948 16.1443L10.0459 14.5698C9.74484 14.4034 9.37941 14.4034 9.07838 14.5698L6.23055 16.144C5.5 16.5479 4.62544 15.9318 4.7598 15.1079L5.32756 11.6267C5.37865 11.3134 5.27797 10.9945 5.05627 10.7673L2.61401 8.26479C2.04548 7.68223 2.37401 6.70073 3.17869 6.57782L6.46812 6.07537C6.79784 6.02501 7.08075 5.81356 7.22243 5.5116L8.657 2.45414C9.01683 1.68722 10.1076 1.68715 10.4675 2.454L11.9028 5.51174Z" fill="#F4A316"/>
</svg>
